<?xml version="1.0" standalone="no"?>
<!DOCTYPE svg PUBLIC "-//W3C//DTD SVG 20010904//EN"
 "http://www.w3.org/TR/2001/REC-SVG-20010904/DTD/svg10.dtd">
<svg version="1.0" xmlns="http://www.w3.org/2000/svg"
 width="128.000000pt" height="128.000000pt" viewBox="0 0 128.000000 128.000000"
 preserveAspectRatio="xMidYMid meet">
<metadata>
Created by potrace 1.14, written by Peter Selinger 2001-2017
</metadata>
<g transform="translate(0.000000,128.000000) scale(0.100000,-0.100000)"
fill="#000000" stroke="none">
<path d="M480 1259 c-120 -31 -195 -74 -285 -164 -93 -92 -145 -182 -175 -301
-38 -148 -23 -283 46 -433 37 -79 57 -106 122 -170 130 -129 277 -191 452
-191 175 0 323 62 451 190 202 201 246 497 112 753 -50 96 -173 220 -263 265
-142 70 -313 90 -460 51z m413 -362 c36 -15 37 -18 37 -66 0 -45 -3 -51 -21
-51 -13 0 -23 10 -31 30 -13 37 -53 60 -108 60 -48 0 -80 -27 -80 -68 0 -39
31 -64 116 -96 113 -43 155 -100 132 -182 -20 -73 -101 -112 -208 -100 -33 4
-73 12 -90 17 -29 11 -30 13 -30 75 0 78 19 86 50 20 24 -49 52 -66 114 -66
59 0 96 29 96 76 0 45 -22 65 -109 99 -80 32 -138 81 -143 122 -8 62 21 114
77 140 38 17 146 12 198 -10z m-320 -1 c6 -15 -11 -36 -29 -36 -9 0 -13 -62
-16 -237 -3 -203 -6 -243 -21 -271 -26 -49 -73 -74 -125 -69 -51 6 -65 16 -64
52 0 43 16 51 57 29 27 -14 39 -16 53 -8 15 10 17 36 20 256 l2 246 -25 6
c-24 6 -33 25 -18 39 3 4 41 7 84 7 56 0 78 -4 82 -14z"/>
</g>
</svg>
